<svg xmlns="http://www.w3.org/2000/svg" viewBox="0 0 144.71 30.76"><defs><style>.cls-1{fill:#fff;}</style></defs><g id="Layer_2" data-name="Layer 2"><g id="Layer_1-2" data-name="Layer 1"><path class="cls-1" d="M4.42,30.76V13.09H0v-2.2H13.25v2.2H8.82V30.76Z"/><path class="cls-1" d="M28.69,24.14H19.87v2.2a2.16,2.16,0,0,0,.65,1.56,2.1,2.1,0,0,0,1.55.66H24.3a2,2,0,0,0,2.19-2.22h2.2c-.33,2.95-1.8,4.42-4.39,4.42H19.87a4.28,4.28,0,0,1-3.11-1.29,4.23,4.23,0,0,1-1.31-3.13V19.72a4.2,4.2,0,0,1,1.31-3.11,4.28,4.28,0,0,1,3.11-1.29H24.3a4.4,4.4,0,0,1,4.39,4.4Zm-8.82-2.2H24.3V19.72a2.2,2.2,0,0,0-2.23-2.2,2.11,2.11,0,0,0-1.55.64,2.15,2.15,0,0,0-.65,1.56Z"/><path class="cls-1" d="M33.12,30.76V10.89h4.42V30.76Z"/><path class="cls-1" d="M55.19,24.14H46.37v2.2A2.15,2.15,0,0,0,47,27.9a2.12,2.12,0,0,0,1.56.66h2.22A2,2,0,0,0,53,26.34h2.2c-.34,2.95-1.8,4.42-4.4,4.42H46.37a4.44,4.44,0,0,1-4.43-4.42V19.72a4.24,4.24,0,0,1,1.31-3.11,4.3,4.3,0,0,1,3.12-1.29h4.42a4.42,4.42,0,0,1,4.4,4.4Zm-8.82-2.2h4.42V19.72a2.21,2.21,0,1,0-4.42,0Z"/><path class="cls-1" d="M59.61,30.76V26.34H64v4.42Z"/><path class="cls-1" d="M68.44,30.76V10.89h4.42v6.63a2.69,2.69,0,0,1,.69-1.66,2.07,2.07,0,0,1,1.51-.54h2.22a4.42,4.42,0,0,1,4.4,4.4v6.62a4.25,4.25,0,0,1-1.3,3.11,4.18,4.18,0,0,1-3.1,1.31Zm4.42-2.2h2.2a2.24,2.24,0,0,0,2.22-2.22V19.72a2.21,2.21,0,0,0-3.77-1.56,2.15,2.15,0,0,0-.65,1.56Z"/><path class="cls-1" d="M95,21.94V19.72a2.2,2.2,0,0,0-2.23-2.2h-2.2c-1.31,0-2,.73-2.2,2.2H86.11c.35-2.94,1.83-4.4,4.42-4.4H95a4.4,4.4,0,0,1,4.39,4.4v11H95v-2.2c-.18,1.47-.92,2.2-2.23,2.2h-2.2a4.28,4.28,0,0,1-3.11-1.29,4.23,4.23,0,0,1-1.31-3.13,4.18,4.18,0,0,1,1.31-3.1,4.25,4.25,0,0,1,3.11-1.3Zm0,2.2H92.73a2.22,2.22,0,0,0-2.2,2.2,2.16,2.16,0,0,0,.65,1.56,2.1,2.1,0,0,0,1.55.66A2.24,2.24,0,0,0,95,26.34Z"/><path class="cls-1" d="M103.78,30.76V15.32h4.42v2.2a2.69,2.69,0,0,1,.69-1.66,2.08,2.08,0,0,1,1.51-.54h2.23a4.42,4.42,0,0,1,4.4,4.4v11h-4.4v-11a2.2,2.2,0,0,0-2.23-2.2,2.11,2.11,0,0,0-1.55.64,2.15,2.15,0,0,0-.65,1.56v11Z"/><path class="cls-1" d="M131.81,27.62a6.52,6.52,0,0,1,1.06-1,6.54,6.54,0,0,1,1.83-1.76V10.89h-4.4v4.43h-4.43a4.29,4.29,0,0,0-3.11,1.29,4.24,4.24,0,0,0-1.31,3.11v6.62a4.44,4.44,0,0,0,4.42,4.42h2.2c1.31,0,2.05-.73,2.23-2.2v1A7,7,0,0,1,131.81,27.62Zm-2.16.28a2.19,2.19,0,0,1-3.13,0,2.16,2.16,0,0,1-.65-1.56V19.72a2.2,2.2,0,0,1,2.2-2.2h2.23v8.82A2.16,2.16,0,0,1,129.65,27.9Z"/><path class="cls-1" d="M134.69,19.72v6.62a4.23,4.23,0,0,1-1.31,3.13,4.28,4.28,0,0,1-3.11,1.29h-2.2c-1.31,0-2-.73-2.22-2.2"/><path class="cls-1" d="M125.87,26.34a2.24,2.24,0,0,0,2.23,2.22,2.1,2.1,0,0,0,1.55-.66,2.16,2.16,0,0,0,.65-1.56V19.72"/><path class="cls-1" d="M131.89,7.81a3.23,3.23,0,0,1,2.41,1c.14,0,.27.06.4.11v-5h-4.4V8.17A3.55,3.55,0,0,1,131.89,7.81Z"/><path class="cls-1" d="M131.89,11a3.19,3.19,0,0,1,2.41,1,2.62,2.62,0,0,1,.4.11v-5h-4.4v4.26A3.42,3.42,0,0,1,131.89,11Z"/><path class="cls-1" d="M128.25,19.65a7.81,7.81,0,0,1-.53,4.11,3.94,3.94,0,0,0-.42,1.31,1,1,0,0,0,.65,1.1,1,1,0,0,0,1.06-.55,2.89,2.89,0,0,0,.28-1.24l.38-5.16"/><path class="cls-1" d="M125.84,20.32l0,.12-.09-.66a8,8,0,0,1,0,2l.09-.66a8,8,0,0,1-.54,2l.25-.6a7.39,7.39,0,0,0-.75,2.46,3.61,3.61,0,0,0,.94,2.67,3.26,3.26,0,0,0,3.15,1,3.71,3.71,0,0,0,2.24-1.67c.75-1.21.67-2.81.77-4.18l.26-3.53a2.5,2.5,0,0,0-4.26-1.77,2.82,2.82,0,0,0-.74,1.77c-.14,1.87-.2,3.76-.43,5.63l.09-.67a3.63,3.63,0,0,1-.13.57l.25-.6a1.48,1.48,0,0,1-.21.37l.39-.5a1.47,1.47,0,0,1-.22.21l.51-.39a1.59,1.59,0,0,1-.26.14l.6-.25a.58.58,0,0,1-.19,0l.67-.08h-.19l.66.09-.18-.05.6.25a.51.51,0,0,1-.16-.09l.51.4a1.14,1.14,0,0,1-.19-.19l.39.5a1.16,1.16,0,0,1-.14-.24l.26.6a1.38,1.38,0,0,1-.08-.27l.09.66a1.28,1.28,0,0,1,0-.39l-.09.66a3.42,3.42,0,0,1,.23-.77l-.25.6a12.16,12.16,0,0,0,1-2.86,12.94,12.94,0,0,0,.18-1.77,14,14,0,0,0-.17-1.83,2.46,2.46,0,0,0-1.15-1.49,2.49,2.49,0,0,0-3.42.89l-.25.6a2.5,2.5,0,0,0,0,1.33Z"/><path class="cls-1" d="M132.54,2.48A2.25,2.25,0,0,0,133,4.65,5.44,5.44,0,0,0,134.87,6c2.38,1.18,5.16,2.06,6.5,4.35,1.07,1.84.9,4.12.7,6.24"/><path class="cls-1" d="M130.13,1.82c-.77,2.39.69,4.65,2.66,5.88,1.32.83,2.82,1.33,4.19,2.06.3.16.59.33.88.52s.33.22.5.34c-.48-.33,0,0,.11.11l.35.34c.17.19.25.3.06,0,.11.16.23.33.33.5s.32.7.14.25a7.14,7.14,0,0,1,.31,1.12c.14.7,0-.46,0,.27,0,.19,0,.39,0,.59a23,23,0,0,1-.14,2.75,2.52,2.52,0,0,0,2.5,2.5,2.57,2.57,0,0,0,2.5-2.5,15.46,15.46,0,0,0-.22-5.51A8.56,8.56,0,0,0,141,6.42a20.14,20.14,0,0,0-3.79-2.06,15.9,15.9,0,0,1-2.13-1.1c.3.19,0,0-.12-.12s.11.25-.08-.1c-.29-.53.06.39,0-.2,0,.18-.07.77.08.31A2.52,2.52,0,0,0,133.21.07a2.56,2.56,0,0,0-3.08,1.75Z"/></g></g></svg>